<svg xmlns="http://www.w3.org/2000/svg" viewBox="0 0 800 1000" width="800" height="1000" role="img" aria-label="Illustration apaisée : une aube douce sur un horizon calme, une arche protectrice abritant un point lumineux">
  <defs>
    <linearGradient id="sky" x1="0" y1="0" x2="0" y2="1">
      <stop offset="0" stop-color="#e7edf6"/>
      <stop offset="0.45" stop-color="#f3ecdf"/>
      <stop offset="1" stop-color="#f6ddcb"/>
    </linearGradient>
    <radialGradient id="glow" cx="0.5" cy="0.56" r="0.55">
      <stop offset="0" stop-color="#f2c3a6" stop-opacity="0.9"/>
      <stop offset="0.5" stop-color="#e8a37f" stop-opacity="0.35"/>
      <stop offset="1" stop-color="#e8a37f" stop-opacity="0"/>
    </radialGradient>
    <linearGradient id="sun" x1="0" y1="0" x2="0" y2="1">
      <stop offset="0" stop-color="#f7d6bf"/>
      <stop offset="1" stop-color="#e08a64"/>
    </linearGradient>
    <linearGradient id="hillBack" x1="0" y1="0" x2="0" y2="1">
      <stop offset="0" stop-color="#aabdd6"/>
      <stop offset="1" stop-color="#93a6c6"/>
    </linearGradient>
    <linearGradient id="hillMid" x1="0" y1="0" x2="0" y2="1">
      <stop offset="0" stop-color="#4d699a"/>
      <stop offset="1" stop-color="#3a5685"/>
    </linearGradient>
    <linearGradient id="hillFront" x1="0" y1="0" x2="0" y2="1">
      <stop offset="0" stop-color="#283d63"/>
      <stop offset="1" stop-color="#1b2942"/>
    </linearGradient>
  </defs>

  <!-- ciel -->
  <rect width="800" height="1000" fill="url(#sky)"/>

  <!-- halo lumineux -->
  <rect width="800" height="1000" fill="url(#glow)"/>

  <!-- soleil bas, derrière les collines -->
  <circle cx="400" cy="600" r="118" fill="url(#sun)"/>

  <!-- arche protectrice (motif de marque) abritant le point enfant -->
  <g fill="none" stroke-linecap="round">
    <path d="M250 318 A150 150 0 0 1 550 318" stroke="#bccadd" stroke-width="6" opacity="0.7"/>
    <path d="M298 318 A102 102 0 0 1 502 318" stroke="#e08a64" stroke-width="5" opacity="0.8"/>
  </g>
  <circle cx="400" cy="318" r="11" fill="#ffffff" opacity="0.95"/>

  <!-- poussières douces -->
  <g fill="#ffffff" opacity="0.7">
    <circle cx="180" cy="250" r="4"/>
    <circle cx="620" cy="210" r="3"/>
    <circle cx="660" cy="360" r="5"/>
    <circle cx="150" cy="430" r="3"/>
  </g>
  <g fill="#c25b3c" opacity="0.4">
    <circle cx="250" cy="180" r="3"/>
    <circle cx="560" cy="430" r="4"/>
  </g>

  <!-- collines en couches (profondeur, sentier vers la lumière) -->
  <path d="M0 690 C 180 620 320 660 420 648 C 560 632 680 600 800 636 L800 1000 L0 1000 Z" fill="url(#hillBack)"/>
  <path d="M0 800 C 200 740 360 786 520 770 C 650 757 730 742 800 762 L800 1000 L0 1000 Z" fill="url(#hillMid)"/>
  <path d="M0 902 C 160 860 300 892 460 902 C 620 912 700 922 800 906 L800 1000 L0 1000 Z" fill="url(#hillFront)"/>

  <!-- reflet doux du soleil sur la colline avant (sentier) -->
  <path d="M392 905 C 396 880 404 880 408 905 L404 1000 L396 1000 Z" fill="#f7d6bf" opacity="0.2"/>
</svg>
